<svg width="32" height="32" viewBox="0 0 32 32" fill="none" xmlns="http://www.w3.org/2000/svg">
<path d="M21.6384 8.59253C19.1972 8.59253 18.1654 9.74702 16.4653 9.74702C14.7221 9.74702 13.3925 8.60093 11.277 8.60093C9.20632 8.60093 6.99818 9.85383 5.59591 11.9882C3.62693 14.998 3.96114 20.6667 7.15015 25.4958C8.29085 27.2246 9.81421 29.1633 11.8123 29.1843H11.8486C13.5851 29.1843 14.1009 28.0574 16.4907 28.0442H16.527C18.8811 28.0442 19.3534 29.1777 21.0826 29.1777H21.1189C23.117 29.1567 24.7221 27.0086 25.8628 25.2864C26.6838 24.0479 26.9889 23.4263 27.6186 22.0252C23.0056 20.2898 22.2645 13.8087 26.8267 11.3239C25.4341 9.59581 23.4772 8.59493 21.6324 8.59493L21.6384 8.59253Z" fill="url(#paint0_linear_2611_4852)"/>
<path d="M21.1008 2.30371C19.6477 2.40152 17.9524 3.31839 16.9594 4.51548C16.0585 5.60037 15.3174 7.20969 15.608 8.77041H15.7243C17.2719 8.77041 18.8558 7.84694 19.7809 6.66365C20.6722 5.53736 21.3479 3.94124 21.1008 2.30371Z" fill="url(#paint1_linear_2611_4852)"/>
<defs>
<linearGradient id="paint0_linear_2611_4852" x1="4.97341" y1="29.1843" x2="25.1178" y2="25.8351" gradientUnits="userSpaceOnUse">
<stop stop-color="#313860"/>
<stop offset="1" stop-color="#151928"/>
</linearGradient>
<linearGradient id="paint1_linear_2611_4852" x1="15.6887" y1="8.77041" x2="20.6031" y2="8.14268" gradientUnits="userSpaceOnUse">
<stop stop-color="#313860"/>
<stop offset="1" stop-color="#151928"/>
</linearGradient>
</defs>
</svg>
