<svg width="24" height="25" viewBox="0 0 24 25" fill="none" xmlns="http://www.w3.org/2000/svg">
<path d="M22.1794 11.1392L22.0734 10.6937H12.3028V14.792H18.1406C17.5345 17.6444 14.722 19.1458 12.4247 19.1458C10.7531 19.1458 8.99109 18.449 7.82484 17.3289C7.20953 16.7286 6.71974 16.0138 6.38353 15.2256C6.04731 14.4374 5.87126 13.5912 5.86547 12.7354C5.86547 11.0092 6.64828 9.28243 7.78734 8.1466C8.9264 7.01077 10.6467 6.37527 12.3572 6.37527C14.3161 6.37527 15.72 7.40611 16.245 7.87623L19.1836 4.97929C18.3216 4.22857 15.9534 2.33691 12.2625 2.33691C9.41484 2.33691 6.68437 3.41793 4.68844 5.38949C2.71875 7.33085 1.69922 10.1381 1.69922 12.7429C1.69922 15.3476 2.66391 18.0146 4.57266 19.9713C6.61219 22.0581 9.50062 23.1488 12.4748 23.1488C15.1809 23.1488 17.7459 22.098 19.5741 20.1915C21.3712 18.3147 22.3008 15.7179 22.3008 12.9956C22.3008 11.8495 22.1845 11.169 22.1794 11.1392Z" fill="url(#paint0_linear_2611_4849)"/>
<defs>
<linearGradient id="paint0_linear_2611_4849" x1="2.23087" y1="23.1488" x2="20.196" y2="20.5296" gradientUnits="userSpaceOnUse">
<stop stop-color="#313860"/>
<stop offset="1" stop-color="#151928"/>
</linearGradient>
</defs>
</svg>
